<mxfile host="app.diagrams.net" agent="Mozilla/5.0 (Windows NT 10.0; Win64; x64) AppleWebKit/537.36 (KHTML, like Gecko) Chrome/128.0.0.0 Safari/537.36" version="24.7.14">
  <diagram name="Page-1" id="0lJXDNrMR73nAN8ZaPba">
    <mxGraphModel dx="1221" dy="1708" grid="1" gridSize="10" guides="1" tooltips="1" connect="1" arrows="1" fold="1" page="1" pageScale="1" pageWidth="850" pageHeight="1100" math="0" shadow="0">
      <root>
        <mxCell id="0" />
        <mxCell id="1" parent="0" />
        <mxCell id="0Ny62CUeT-b2j1MteKPA-1" value="" style="rounded=0;whiteSpace=wrap;html=1;fillColor=#d0cee2;strokeColor=#56517e;" parent="1" vertex="1">
          <mxGeometry x="39.5" y="-40" width="1000.5" height="570" as="geometry" />
        </mxCell>
        <mxCell id="iN4ySx44UxkcBDWheNLw-99" value="" style="rounded=0;whiteSpace=wrap;html=1;" parent="1" vertex="1">
          <mxGeometry x="220" y="-10" width="770" height="500" as="geometry" />
        </mxCell>
        <mxCell id="iN4ySx44UxkcBDWheNLw-1" value="" style="outlineConnect=0;dashed=0;verticalLabelPosition=bottom;verticalAlign=top;align=center;html=1;shape=mxgraph.aws3.lambda_function;fillColor=#F58534;gradientColor=none;" parent="1" vertex="1">
          <mxGeometry x="250" y="226" width="50" height="50" as="geometry" />
        </mxCell>
        <mxCell id="iN4ySx44UxkcBDWheNLw-2" value="" style="image;sketch=0;aspect=fixed;html=1;points=[];align=center;fontSize=12;image=img/lib/mscae/Client_Apps.svg;" parent="1" vertex="1">
          <mxGeometry x="100" y="230" width="39" height="39" as="geometry" />
        </mxCell>
        <mxCell id="iN4ySx44UxkcBDWheNLw-3" value="" style="endArrow=classic;html=1;rounded=0;fontColor=#33001A;strokeColor=#33001A;exitX=0.92;exitY=0.516;exitDx=0;exitDy=0;exitPerimeter=0;" parent="1" source="iN4ySx44UxkcBDWheNLw-2" edge="1">
          <mxGeometry width="50" height="50" relative="1" as="geometry">
            <mxPoint x="160" y="250" as="sourcePoint" />
            <mxPoint x="250" y="250" as="targetPoint" />
          </mxGeometry>
        </mxCell>
        <mxCell id="iN4ySx44UxkcBDWheNLw-4" value="" style="endArrow=classic;html=1;rounded=0;exitX=1;exitY=0.5;exitDx=0;exitDy=0;exitPerimeter=0;strokeColor=#B85450;" parent="1" edge="1">
          <mxGeometry width="50" height="50" relative="1" as="geometry">
            <mxPoint x="300" y="250" as="sourcePoint" />
            <mxPoint x="380" y="250" as="targetPoint" />
          </mxGeometry>
        </mxCell>
        <mxCell id="iN4ySx44UxkcBDWheNLw-5" value="" style="outlineConnect=0;dashed=0;verticalLabelPosition=bottom;verticalAlign=top;align=center;html=1;shape=mxgraph.aws3.sqs;fillColor=#D9A741;gradientColor=none;" parent="1" vertex="1">
          <mxGeometry x="380" y="225" width="50" height="58" as="geometry" />
        </mxCell>
        <mxCell id="iN4ySx44UxkcBDWheNLw-6" value="" style="outlineConnect=0;dashed=0;verticalLabelPosition=bottom;verticalAlign=top;align=center;html=1;shape=mxgraph.aws3.lambda_function;fillColor=#F58534;gradientColor=none;" parent="1" vertex="1">
          <mxGeometry x="530" y="215" width="69" height="72" as="geometry" />
        </mxCell>
        <mxCell id="iN4ySx44UxkcBDWheNLw-8" value="" style="endArrow=classic;html=1;rounded=0;fillColor=#f8cecc;strokeColor=#b85450;" parent="1" edge="1">
          <mxGeometry relative="1" as="geometry">
            <mxPoint x="430" y="250" as="sourcePoint" />
            <mxPoint x="530" y="250" as="targetPoint" />
          </mxGeometry>
        </mxCell>
        <mxCell id="iN4ySx44UxkcBDWheNLw-9" value="Label" style="edgeLabel;resizable=0;html=1;;align=center;verticalAlign=middle;" parent="iN4ySx44UxkcBDWheNLw-8" connectable="0" vertex="1">
          <mxGeometry relative="1" as="geometry" />
        </mxCell>
        <mxCell id="iN4ySx44UxkcBDWheNLw-10" value="trigger" style="edgeLabel;html=1;align=center;verticalAlign=middle;resizable=0;points=[];fontColor=#B85450;" parent="iN4ySx44UxkcBDWheNLw-8" vertex="1" connectable="0">
          <mxGeometry x="0.0267" y="1" relative="1" as="geometry">
            <mxPoint as="offset" />
          </mxGeometry>
        </mxCell>
        <mxCell id="iN4ySx44UxkcBDWheNLw-11" value="" style="sketch=0;points=[[0,0,0],[0.25,0,0],[0.5,0,0],[0.75,0,0],[1,0,0],[0,1,0],[0.25,1,0],[0.5,1,0],[0.75,1,0],[1,1,0],[0,0.25,0],[0,0.5,0],[0,0.75,0],[1,0.25,0],[1,0.5,0],[1,0.75,0]];outlineConnect=0;fontColor=#232F3E;fillColor=#C925D1;strokeColor=#ffffff;dashed=0;verticalLabelPosition=bottom;verticalAlign=top;align=center;html=1;fontSize=12;fontStyle=0;aspect=fixed;shape=mxgraph.aws4.resourceIcon;resIcon=mxgraph.aws4.timestream;direction=south;" parent="1" vertex="1">
          <mxGeometry x="537" y="80" width="55" height="55" as="geometry" />
        </mxCell>
        <mxCell id="iN4ySx44UxkcBDWheNLw-12" value="" style="sketch=0;pointerEvents=1;shadow=0;dashed=0;html=1;strokeColor=#d6b656;fillColor=#FF99FF;labelPosition=center;verticalLabelPosition=bottom;verticalAlign=top;outlineConnect=0;align=center;shape=mxgraph.office.security.retention_policy;gradientColor=#ffd966;" parent="1" vertex="1">
          <mxGeometry x="580" y="60" width="40" height="35" as="geometry" />
        </mxCell>
        <mxCell id="iN4ySx44UxkcBDWheNLw-13" value="" style="outlineConnect=0;dashed=0;verticalLabelPosition=bottom;verticalAlign=top;align=center;html=1;shape=mxgraph.aws3.event_time_based;fillColor=#dae8fc;strokeColor=#9673A6;" parent="1" vertex="1">
          <mxGeometry x="383" y="330" width="43" height="50" as="geometry" />
        </mxCell>
        <mxCell id="iN4ySx44UxkcBDWheNLw-18" value="" style="endArrow=classic;html=1;rounded=0;fillColor=#e1d5e7;strokeColor=#82B366;entryX=0.279;entryY=0.988;entryDx=0;entryDy=0;entryPerimeter=0;fontColor=#82B366;" parent="1" edge="1">
          <mxGeometry width="50" height="50" relative="1" as="geometry">
            <mxPoint x="421" y="363" as="sourcePoint" />
            <mxPoint x="548.251" y="284.13599999999997" as="targetPoint" />
            <Array as="points">
              <mxPoint x="549" y="363" />
            </Array>
          </mxGeometry>
        </mxCell>
        <mxCell id="iN4ySx44UxkcBDWheNLw-19" value="trigger" style="edgeLabel;html=1;align=center;verticalAlign=middle;resizable=0;points=[];fontColor=#82B366;" parent="iN4ySx44UxkcBDWheNLw-18" vertex="1" connectable="0">
          <mxGeometry x="-0.4182" relative="1" as="geometry">
            <mxPoint as="offset" />
          </mxGeometry>
        </mxCell>
        <mxCell id="iN4ySx44UxkcBDWheNLw-20" value="" style="endArrow=classic;html=1;rounded=0;fillColor=#f8cecc;strokeColor=#b85450;" parent="1" edge="1">
          <mxGeometry width="50" height="50" relative="1" as="geometry">
            <mxPoint x="562" y="214" as="sourcePoint" />
            <mxPoint x="562" y="134" as="targetPoint" />
          </mxGeometry>
        </mxCell>
        <mxCell id="iN4ySx44UxkcBDWheNLw-24" value="create multi measure&lt;div&gt;record&lt;/div&gt;" style="edgeLabel;html=1;align=center;verticalAlign=middle;resizable=0;points=[];fontColor=#B85450;" parent="iN4ySx44UxkcBDWheNLw-20" vertex="1" connectable="0">
          <mxGeometry x="0.0194" y="-1" relative="1" as="geometry">
            <mxPoint as="offset" />
          </mxGeometry>
        </mxCell>
        <mxCell id="iN4ySx44UxkcBDWheNLw-27" value="" style="endArrow=classic;html=1;rounded=0;strokeColor=#82B366;" parent="1" edge="1">
          <mxGeometry width="50" height="50" relative="1" as="geometry">
            <mxPoint x="600" y="250" as="sourcePoint" />
            <mxPoint x="590" y="110" as="targetPoint" />
            <Array as="points">
              <mxPoint x="680" y="250" />
              <mxPoint x="680" y="110" />
            </Array>
          </mxGeometry>
        </mxCell>
        <mxCell id="iN4ySx44UxkcBDWheNLw-28" value="&lt;font color=&quot;#82b366&quot;&gt;query (1day ago)&lt;/font&gt;" style="edgeLabel;html=1;align=center;verticalAlign=middle;resizable=0;points=[];" parent="iN4ySx44UxkcBDWheNLw-27" vertex="1" connectable="0">
          <mxGeometry x="-0.0659" y="1" relative="1" as="geometry">
            <mxPoint as="offset" />
          </mxGeometry>
        </mxCell>
        <mxCell id="iN4ySx44UxkcBDWheNLw-29" value="" style="endArrow=classic;html=1;rounded=0;strokeColor=#82B366;" parent="1" edge="1">
          <mxGeometry width="50" height="50" relative="1" as="geometry">
            <mxPoint x="600" y="250" as="sourcePoint" />
            <mxPoint x="800" y="250" as="targetPoint" />
          </mxGeometry>
        </mxCell>
        <mxCell id="iN4ySx44UxkcBDWheNLw-31" value="upload" style="edgeLabel;html=1;align=center;verticalAlign=middle;resizable=0;points=[];fontColor=#82B366;" parent="iN4ySx44UxkcBDWheNLw-29" vertex="1" connectable="0">
          <mxGeometry x="0.3556" relative="1" as="geometry">
            <mxPoint as="offset" />
          </mxGeometry>
        </mxCell>
        <mxCell id="iN4ySx44UxkcBDWheNLw-30" value="" style="sketch=0;outlineConnect=0;fontColor=#232F3E;gradientColor=none;fillColor=#7AA116;strokeColor=none;dashed=0;verticalLabelPosition=bottom;verticalAlign=top;align=center;html=1;fontSize=12;fontStyle=0;aspect=fixed;pointerEvents=1;shape=mxgraph.aws4.bucket;" parent="1" vertex="1">
          <mxGeometry x="795" y="219" width="54.81" height="57" as="geometry" />
        </mxCell>
        <mxCell id="iN4ySx44UxkcBDWheNLw-45" value="&lt;span style=&quot;font-style: normal;&quot;&gt;&lt;font style=&quot;font-size: 10px;&quot;&gt;partition&lt;/font&gt;&lt;/span&gt;&lt;span style=&quot;font-style: normal; font-weight: normal;&quot;&gt;:&amp;nbsp;&lt;/span&gt;/analytics/year=/month=/day=" style="text;html=1;align=center;verticalAlign=middle;whiteSpace=wrap;rounded=0;fontColor=#82B366;fontStyle=3;fontSize=8;" parent="1" vertex="1">
          <mxGeometry x="650" y="260" width="110" height="16" as="geometry" />
        </mxCell>
        <mxCell id="iN4ySx44UxkcBDWheNLw-46" value="" style="sketch=0;html=1;aspect=fixed;strokeColor=#82b366;shadow=0;fillColor=#d5e8d4;verticalAlign=top;labelPosition=center;verticalLabelPosition=bottom;shape=mxgraph.gcp2.lifecycle;gradientColor=#97d077;" parent="1" vertex="1">
          <mxGeometry x="780" y="199" width="31.5" height="31.5" as="geometry" />
        </mxCell>
        <mxCell id="iN4ySx44UxkcBDWheNLw-48" value="&lt;font style=&quot;font-size: 11px;&quot;&gt;daily cron&lt;/font&gt;&lt;div&gt;&lt;font style=&quot;font-size: 11px;&quot;&gt;event bus rule&lt;/font&gt;&lt;/div&gt;" style="text;html=1;align=center;verticalAlign=middle;whiteSpace=wrap;rounded=0;fontColor=#82B366;" parent="1" vertex="1">
          <mxGeometry x="345.5" y="386.5" width="112" height="30" as="geometry" />
        </mxCell>
        <mxCell id="iN4ySx44UxkcBDWheNLw-55" value="/any_api" style="text;html=1;align=center;verticalAlign=middle;resizable=0;points=[];autosize=1;strokeColor=none;fillColor=none;fontSize=9;fontColor=#33001A;" parent="1" vertex="1">
          <mxGeometry x="139" y="230" width="60" height="20" as="geometry" />
        </mxCell>
        <mxCell id="iN4ySx44UxkcBDWheNLw-56" value="client app" style="text;html=1;align=center;verticalAlign=middle;resizable=0;points=[];autosize=1;strokeColor=none;fillColor=none;fontSize=10;" parent="1" vertex="1">
          <mxGeometry x="39.5" y="231.5" width="70" height="30" as="geometry" />
        </mxCell>
        <mxCell id="iN4ySx44UxkcBDWheNLw-57" value="handler&lt;div style=&quot;font-size: 9px;&quot;&gt;(collect request trace)&lt;/div&gt;" style="text;html=1;align=center;verticalAlign=middle;resizable=0;points=[];autosize=1;strokeColor=none;fillColor=none;fontSize=9;" parent="1" vertex="1">
          <mxGeometry x="220" y="271" width="110" height="40" as="geometry" />
        </mxCell>
        <mxCell id="iN4ySx44UxkcBDWheNLw-58" value="FIFO queue" style="text;html=1;align=center;verticalAlign=middle;resizable=0;points=[];autosize=1;strokeColor=none;fillColor=none;fontSize=9;fontColor=#B85450;" parent="1" vertex="1">
          <mxGeometry x="370" y="201.5" width="70" height="20" as="geometry" />
        </mxCell>
        <mxCell id="iN4ySx44UxkcBDWheNLw-60" value="" style="outlineConnect=0;dashed=0;verticalLabelPosition=bottom;verticalAlign=top;align=center;html=1;shape=mxgraph.aws3.sns;fillColor=#D9A741;gradientColor=none;" parent="1" vertex="1">
          <mxGeometry x="640" y="320" width="33" height="40" as="geometry" />
        </mxCell>
        <mxCell id="iN4ySx44UxkcBDWheNLw-61" value="/download/usage?dates" style="text;html=1;align=center;verticalAlign=middle;resizable=0;points=[];autosize=1;strokeColor=none;fillColor=none;fontSize=9;fontColor=#001DBC;" parent="1" vertex="1">
          <mxGeometry x="111" y="128" width="120" height="20" as="geometry" />
        </mxCell>
        <mxCell id="iN4ySx44UxkcBDWheNLw-63" value="" style="endArrow=classic;html=1;rounded=0;exitX=0.098;exitY=0.728;exitDx=0;exitDy=0;exitPerimeter=0;dashed=1;strokeColor=#CCCCCC;fontColor=#999999;" parent="1" edge="1">
          <mxGeometry width="50" height="50" relative="1" as="geometry">
            <mxPoint x="534.762" y="267.41599999999994" as="sourcePoint" />
            <mxPoint x="428" y="267" as="targetPoint" />
          </mxGeometry>
        </mxCell>
        <mxCell id="iN4ySx44UxkcBDWheNLw-65" value="del msg" style="edgeLabel;html=1;align=center;verticalAlign=middle;resizable=0;points=[];fontColor=#999999;" parent="iN4ySx44UxkcBDWheNLw-63" vertex="1" connectable="0">
          <mxGeometry x="-0.0805" y="3" relative="1" as="geometry">
            <mxPoint as="offset" />
          </mxGeometry>
        </mxCell>
        <mxCell id="iN4ySx44UxkcBDWheNLw-66" value="time stream DB" style="text;html=1;align=center;verticalAlign=middle;resizable=0;points=[];autosize=1;strokeColor=none;fillColor=none;fontSize=9;" parent="1" vertex="1">
          <mxGeometry x="500" y="60" width="90" height="20" as="geometry" />
        </mxCell>
        <mxCell id="iN4ySx44UxkcBDWheNLw-68" value="" style="sketch=0;pointerEvents=1;shadow=0;dashed=0;html=1;strokeColor=#36393d;labelPosition=center;verticalLabelPosition=bottom;verticalAlign=top;outlineConnect=0;align=center;shape=mxgraph.office.concepts.folder;fillColor=#cdeb8b;" parent="1" vertex="1">
          <mxGeometry x="830" y="219" width="30" height="20.5" as="geometry" />
        </mxCell>
        <mxCell id="iN4ySx44UxkcBDWheNLw-69" value="" style="endArrow=classic;html=1;rounded=0;fillColor=#6a00ff;strokeColor=#3700CC;" parent="1" edge="1">
          <mxGeometry width="50" height="50" relative="1" as="geometry">
            <mxPoint x="140" y="160" as="sourcePoint" />
            <mxPoint x="270" y="226" as="targetPoint" />
            <Array as="points">
              <mxPoint x="130" y="160" />
              <mxPoint x="140" y="160" />
              <mxPoint x="270" y="160" />
            </Array>
          </mxGeometry>
        </mxCell>
        <mxCell id="iN4ySx44UxkcBDWheNLw-71" value="" style="endArrow=classic;html=1;rounded=0;fillColor=#6a00ff;strokeColor=#3700CC;" parent="1" edge="1">
          <mxGeometry width="50" height="50" relative="1" as="geometry">
            <mxPoint x="280" y="224" as="sourcePoint" />
            <mxPoint x="820" y="214" as="targetPoint" />
            <Array as="points">
              <mxPoint x="280" y="24" />
              <mxPoint x="820" y="24" />
              <mxPoint x="820" y="110" />
            </Array>
          </mxGeometry>
        </mxCell>
        <mxCell id="iN4ySx44UxkcBDWheNLw-72" value="" style="endArrow=classic;html=1;rounded=0;fillColor=#0050ef;strokeColor=#001DBC;dashed=1;" parent="1" target="iN4ySx44UxkcBDWheNLw-68" edge="1">
          <mxGeometry width="50" height="50" relative="1" as="geometry">
            <mxPoint x="820" y="130" as="sourcePoint" />
            <mxPoint x="870" y="80" as="targetPoint" />
            <Array as="points">
              <mxPoint x="845" y="130" />
            </Array>
          </mxGeometry>
        </mxCell>
        <mxCell id="iN4ySx44UxkcBDWheNLw-75" value="S3 analytics&lt;div&gt;&amp;nbsp;bucket&lt;/div&gt;" style="text;html=1;align=center;verticalAlign=middle;resizable=0;points=[];autosize=1;strokeColor=none;fillColor=none;fontSize=9;" parent="1" vertex="1">
          <mxGeometry x="833" y="246" width="70" height="40" as="geometry" />
        </mxCell>
        <mxCell id="iN4ySx44UxkcBDWheNLw-76" value="/tmp/a.zip" style="text;html=1;align=center;verticalAlign=middle;resizable=0;points=[];autosize=1;strokeColor=none;fillColor=none;fontSize=9;fontColor=#001DBC;" parent="1" vertex="1">
          <mxGeometry x="849.81" y="199" width="60" height="20" as="geometry" />
        </mxCell>
        <mxCell id="iN4ySx44UxkcBDWheNLw-77" value="download and zip to tmp" style="text;html=1;align=center;verticalAlign=middle;resizable=0;points=[];autosize=1;strokeColor=none;fillColor=none;fontSize=9;fontColor=#001DBC;rotation=1;" parent="1" vertex="1">
          <mxGeometry x="307.5" y="30" width="120" height="20" as="geometry" />
        </mxCell>
        <mxCell id="iN4ySx44UxkcBDWheNLw-78" value="" style="html=1;verticalLabelPosition=bottom;align=center;labelBackgroundColor=#ffffff;verticalAlign=top;strokeWidth=2;strokeColor=#D9A741;shadow=0;dashed=0;shape=mxgraph.ios7.icons.mail;" parent="1" vertex="1">
          <mxGeometry x="646" y="400" width="30" height="16.5" as="geometry" />
        </mxCell>
        <mxCell id="iN4ySx44UxkcBDWheNLw-79" value="" style="endArrow=classic;html=1;rounded=0;exitX=0.5;exitY=1;exitDx=0;exitDy=0;exitPerimeter=0;strokeColor=#D9A741;" parent="1" source="iN4ySx44UxkcBDWheNLw-6" edge="1">
          <mxGeometry width="50" height="50" relative="1" as="geometry">
            <mxPoint x="910" y="360" as="sourcePoint" />
            <mxPoint x="640" y="340" as="targetPoint" />
            <Array as="points">
              <mxPoint x="565" y="340" />
            </Array>
          </mxGeometry>
        </mxCell>
        <mxCell id="iN4ySx44UxkcBDWheNLw-80" value="error notif" style="text;html=1;align=center;verticalAlign=middle;resizable=0;points=[];autosize=1;strokeColor=none;fillColor=none;fontSize=9;rotation=-90;fontColor=#D9A741;fontStyle=1" parent="1" vertex="1">
          <mxGeometry x="650" y="364" width="60" height="20" as="geometry" />
        </mxCell>
        <mxCell id="iN4ySx44UxkcBDWheNLw-81" value="&lt;font color=&quot;#d9a741&quot;&gt;SNS&lt;/font&gt;" style="text;html=1;align=center;verticalAlign=middle;resizable=0;points=[];autosize=1;strokeColor=none;fillColor=none;fontSize=9;" parent="1" vertex="1">
          <mxGeometry x="634.5" y="303" width="40" height="20" as="geometry" />
        </mxCell>
        <mxCell id="iN4ySx44UxkcBDWheNLw-82" value="" style="endArrow=classic;html=1;rounded=0;entryX=0.478;entryY=0.101;entryDx=0;entryDy=0;entryPerimeter=0;strokeColor=#D9A741;" parent="1" target="iN4ySx44UxkcBDWheNLw-78" edge="1">
          <mxGeometry width="50" height="50" relative="1" as="geometry">
            <mxPoint x="660" y="360" as="sourcePoint" />
            <mxPoint x="710" y="310" as="targetPoint" />
          </mxGeometry>
        </mxCell>
        <mxCell id="iN4ySx44UxkcBDWheNLw-84" value="" style="html=1;verticalLabelPosition=bottom;align=center;labelBackgroundColor=#ffffff;verticalAlign=top;strokeWidth=2;strokeColor=#0080F0;shadow=0;dashed=0;shape=mxgraph.ios7.icons.user;" parent="1" vertex="1">
          <mxGeometry x="100" y="140" width="30" height="30" as="geometry" />
        </mxCell>
        <mxCell id="iN4ySx44UxkcBDWheNLw-85" value="admins" style="text;html=1;align=center;verticalAlign=middle;resizable=0;points=[];autosize=1;strokeColor=none;fillColor=none;fontSize=10;" parent="1" vertex="1">
          <mxGeometry x="44.5" y="140" width="60" height="30" as="geometry" />
        </mxCell>
        <mxCell id="iN4ySx44UxkcBDWheNLw-86" value="return: /signed_url/a.zip" style="text;html=1;align=center;verticalAlign=middle;resizable=0;points=[];autosize=1;strokeColor=none;fillColor=none;fontSize=9;fontColor=#001DBC;" parent="1" vertex="1">
          <mxGeometry x="114" y="163.1" width="120" height="20" as="geometry" />
        </mxCell>
        <mxCell id="iN4ySx44UxkcBDWheNLw-87" value="" style="sketch=0;points=[[0,0,0],[0.25,0,0],[0.5,0,0],[0.75,0,0],[1,0,0],[0,1,0],[0.25,1,0],[0.5,1,0],[0.75,1,0],[1,1,0],[0,0.25,0],[0,0.5,0],[0,0.75,0],[1,0.25,0],[1,0.5,0],[1,0.75,0]];outlineConnect=0;fontColor=#232F3E;fillColor=#D80073;strokeColor=#ffffff;dashed=0;verticalLabelPosition=bottom;verticalAlign=top;align=center;html=1;fontSize=12;fontStyle=0;aspect=fixed;shape=mxgraph.aws4.resourceIcon;resIcon=mxgraph.aws4.athena;" parent="1" vertex="1">
          <mxGeometry x="798.9" y="380" width="47" height="47" as="geometry" />
        </mxCell>
        <mxCell id="iN4ySx44UxkcBDWheNLw-88" value="" style="endArrow=classic;html=1;rounded=0;exitX=0.5;exitY=0;exitDx=0;exitDy=0;exitPerimeter=0;fillColor=#d80073;strokeColor=#A50040;" parent="1" source="iN4ySx44UxkcBDWheNLw-87" target="iN4ySx44UxkcBDWheNLw-30" edge="1">
          <mxGeometry width="50" height="50" relative="1" as="geometry">
            <mxPoint x="720" y="380" as="sourcePoint" />
            <mxPoint x="770" y="330" as="targetPoint" />
          </mxGeometry>
        </mxCell>
        <mxCell id="iN4ySx44UxkcBDWheNLw-89" value="" style="outlineConnect=0;dashed=0;verticalLabelPosition=bottom;verticalAlign=top;align=center;html=1;shape=mxgraph.aws3.glue;fillColor=#D80073;fontColor=#ffffff;strokeColor=#A50040;" parent="1" vertex="1">
          <mxGeometry x="790" y="303" width="30" height="28.5" as="geometry" />
        </mxCell>
        <mxCell id="iN4ySx44UxkcBDWheNLw-90" value="athena query" style="text;html=1;align=center;verticalAlign=middle;resizable=0;points=[];autosize=1;strokeColor=none;fillColor=none;fontSize=9;rotation=-90;fontColor=#D80073;fontStyle=1" parent="1" vertex="1">
          <mxGeometry x="795" y="323" width="80" height="20" as="geometry" />
        </mxCell>
        <mxCell id="iN4ySx44UxkcBDWheNLw-91" value="Athena" style="text;html=1;align=center;verticalAlign=middle;resizable=0;points=[];autosize=1;strokeColor=none;fillColor=none;fontSize=9;" parent="1" vertex="1">
          <mxGeometry x="797.4" y="427" width="50" height="20" as="geometry" />
        </mxCell>
        <mxCell id="iN4ySx44UxkcBDWheNLw-92" value="Glue" style="text;html=1;align=center;verticalAlign=middle;resizable=0;points=[];autosize=1;strokeColor=none;fillColor=none;fontSize=9;fontColor=#D80073;" parent="1" vertex="1">
          <mxGeometry x="785" y="331.5" width="40" height="20" as="geometry" />
        </mxCell>
        <mxCell id="iN4ySx44UxkcBDWheNLw-94" value="&lt;div style=&quot;font-size: 8px;&quot;&gt;&lt;span style=&quot;font-size: 8px; text-wrap: nowrap;&quot;&gt;&lt;b style=&quot;font-size: 8px;&quot;&gt;Retention:&lt;/b&gt;&lt;/span&gt;&lt;/div&gt;&lt;span style=&quot;font-size: 8px; text-wrap: nowrap;&quot;&gt;memory: 1d&lt;/span&gt;&lt;div style=&quot;font-size: 8px; text-wrap: nowrap;&quot;&gt;magnetic: 1w&lt;/div&gt;" style="text;html=1;align=left;verticalAlign=middle;whiteSpace=wrap;rounded=0;fontSize=8;" parent="1" vertex="1">
          <mxGeometry x="620" y="40" width="50" height="27.5" as="geometry" />
        </mxCell>
        <mxCell id="iN4ySx44UxkcBDWheNLw-95" value="Application Insights Analytics Workflow" style="text;html=1;align=center;verticalAlign=middle;whiteSpace=wrap;rounded=0;fontStyle=1;fontSize=23;" parent="1" vertex="1">
          <mxGeometry x="39.5" y="-90" width="453" height="30" as="geometry" />
        </mxCell>
        <mxCell id="iN4ySx44UxkcBDWheNLw-100" value="" style="shape=image;html=1;verticalAlign=top;verticalLabelPosition=bottom;labelBackgroundColor=#ffffff;imageAspect=0;aspect=fixed;image=https://cdn2.iconfinder.com/data/icons/boxicons-logos/24/bxl-aws-128.png" parent="1" vertex="1">
          <mxGeometry x="226" y="416.5" width="65" height="65" as="geometry" />
        </mxCell>
        <mxCell id="iN4ySx44UxkcBDWheNLw-101" value="&lt;div style=&quot;font-size: 8px;&quot;&gt;&lt;font style=&quot;font-size: 8px;&quot;&gt;&lt;span style=&quot;text-wrap: nowrap; font-size: 8px;&quot;&gt;&lt;b style=&quot;font-size: 8px;&quot;&gt;Standard:&lt;/b&gt;&lt;/span&gt;&lt;/font&gt;&lt;/div&gt;&lt;font style=&quot;font-size: 8px;&quot;&gt;&lt;span style=&quot;text-wrap: nowrap; font-size: 8px;&quot;&gt;/tmp: 1d&lt;/span&gt;&lt;/font&gt;&lt;div style=&quot;font-size: 8px;&quot;&gt;&lt;font style=&quot;font-size: 8px;&quot;&gt;&lt;span style=&quot;text-wrap: nowrap; font-size: 8px;&quot;&gt;others: 2mo&lt;/span&gt;&lt;/font&gt;&lt;/div&gt;" style="text;html=1;align=left;verticalAlign=middle;whiteSpace=wrap;rounded=0;fontSize=8;" parent="1" vertex="1">
          <mxGeometry x="753.9" y="183.1" width="41.1" height="7.1" as="geometry" />
        </mxCell>
        <mxCell id="dBxbcNoGdtjNIj_vflxA-2" value="1" style="ellipse;whiteSpace=wrap;html=1;aspect=fixed;rotation=0;gradientColor=#223548;strokeColor=none;gradientDirection=east;fillColor=#5b738b;rounded=0;pointerEvents=0;fontFamily=Helvetica;fontSize=16;fontColor=#FFFFFF;spacingTop=4;spacingBottom=4;spacingLeft=4;spacingRight=4;points=[];fontStyle=1" vertex="1" parent="1">
          <mxGeometry x="189" y="210" width="30" height="30" as="geometry" />
        </mxCell>
        <mxCell id="dBxbcNoGdtjNIj_vflxA-3" value="2" style="ellipse;whiteSpace=wrap;html=1;aspect=fixed;rotation=0;gradientColor=#223548;strokeColor=none;gradientDirection=east;fillColor=#5b738b;rounded=0;pointerEvents=0;fontFamily=Helvetica;fontSize=16;fontColor=#FFFFFF;spacingTop=4;spacingBottom=4;spacingLeft=4;spacingRight=4;points=[];fontStyle=1" vertex="1" parent="1">
          <mxGeometry x="480" y="323" width="30" height="30" as="geometry" />
        </mxCell>
        <mxCell id="dBxbcNoGdtjNIj_vflxA-4" value="3" style="ellipse;whiteSpace=wrap;html=1;aspect=fixed;rotation=0;gradientColor=#223548;strokeColor=none;gradientDirection=east;fillColor=#5b738b;rounded=0;pointerEvents=0;fontFamily=Helvetica;fontSize=16;fontColor=#FFFFFF;spacingTop=4;spacingBottom=4;spacingLeft=4;spacingRight=4;points=[];fontStyle=1" vertex="1" parent="1">
          <mxGeometry x="159" y="98" width="30" height="30" as="geometry" />
        </mxCell>
      </root>
    </mxGraphModel>
  </diagram>
</mxfile>
